<svg xmlns="http://www.w3.org/2000/svg" width="1600" height="3974" viewBox="0 0 1600 3974" fill="none"><path d="M4562 1372.21C4562 947.114 4178.27 602.331 3705.15 602.331C3541.79 602.331 3389.22 643.871 3259.77 714.489C3185.8 308.781 2794.36 0 2322.78 0C1974.49 0 1670.9 168.93 1504.46 419.555C1299.49 164.776 966.616 0 590.588 0C58.9087 0 -388.01 330.936 -508.216 775.415C-634.586 711.72 -780.99 675.718 -935.1 675.718C-1419.01 675.718 -1810.44 1027.42 -1810.44 1462.21C-1810.44 1595.14 -1773.46 1719.76 -1708.73 1830.53C-1885.96 1945.46 -2000 2132.39 -2000 2342.86C-2000 2694.57 -1682.53 2978.42 -1292.64 2978.42C-1210.96 2978.42 -1130.82 2965.96 -1058.39 2942.42C-978.251 3373.05 -563.696 3701.22 -61.2972 3701.22C240.758 3701.22 510.45 3582.14 695.382 3393.82C835.622 3687.37 1159.25 3893.69 1538.36 3893.69C1889.73 3893.69 2193.33 3716.45 2347.44 3456.13C2435.28 3508.75 2541.62 3539.21 2655.66 3539.21C2680.32 3539.21 2704.98 3537.83 2729.63 3535.06C2717.3 3568.29 2709.6 3604.29 2709.6 3641.68C2709.6 3825.84 2876.04 3974 3079.46 3974C3282.89 3974 3449.33 3824.46 3449.33 3641.68C3449.33 3471.37 3306 3330.13 3122.61 3310.74C3179.63 3231.82 3213.54 3137.66 3213.54 3037.96C3213.54 3014.42 3212 2990.89 3207.37 2967.35C3290.59 3011.66 3387.68 3037.96 3492.48 3037.96C3800.7 3037.96 4051.9 2813.65 4051.9 2535.33C4051.9 2370.55 3964.05 2225.16 3828.44 2133.78C4242.99 2079.77 4562 1758.53 4562 1372.21Z" fill="#151400"></path></svg>